<svg width="84" height="89" viewBox="0 0 84 89" fill="none" xmlns="http://www.w3.org/2000/svg">
<path d="M58.9252 48C58.9252 54.3118 53.81 59.4286 47.5 59.4286C41.19 59.4286 36.0748 54.3118 36.0748 48C36.0748 41.6882 41.19 36.5714 47.5 36.5714C53.81 36.5714 58.9252 41.6882 58.9252 48Z" fill="white" fill-opacity="0.41"/>
<path fill-rule="evenodd" clip-rule="evenodd" d="M47.5 96C71.6744 96 91.6737 78.1186 95 54.8571H66.8952C64.072 62.847 56.4543 68.5714 47.5 68.5714C38.5457 68.5714 30.928 62.847 28.1048 54.8571H0C3.32631 78.1186 23.3256 96 47.5 96ZM28.1048 41.1429H0C3.32631 17.8814 23.3256 0 47.5 0C71.6744 0 91.6737 17.8814 95 41.1429H66.8952C64.072 33.153 56.4543 27.4286 47.5 27.4286C38.5457 27.4286 30.928 33.153 28.1048 41.1429ZM58.9252 48C58.9252 54.3118 53.81 59.4286 47.5 59.4286C41.19 59.4286 36.0748 54.3118 36.0748 48C36.0748 41.6882 41.19 36.5714 47.5 36.5714C53.81 36.5714 58.9252 41.6882 58.9252 48Z" fill="white" fill-opacity="0.41"/>
</svg>
